<svg id="Layer_1" data-name="Layer 1" xmlns="http://www.w3.org/2000/svg" viewBox="0 0 55.6 47.2"><defs><style>.cls-1{fill:#150256;}</style></defs><g id="Line"><path class="cls-1" d="M29,52.5h-.2a9.58,9.58,0,0,1-3.91-.89l-2.49-1.1a7.89,7.89,0,0,0-5.53-.45l-2.27.69V35.3h4.7L22.8,33H35.7a4.1,4.1,0,0,1,4.09,3.85l5.78-3.6a4.24,4.24,0,1,1,4.68,7.08l-16.1,10.6A9.23,9.23,0,0,1,29,52.5Zm-9.95-4.74a9.67,9.67,0,0,1,4.18.94l2.47,1.09a7.75,7.75,0,0,0,3.1.71H29a7.37,7.37,0,0,0,4.06-1.24L49.15,38.67a2.23,2.23,0,0,0,.62-3.12,2.26,2.26,0,0,0-1.43-1,2.31,2.31,0,0,0-1.69.34l-7.93,4.94A4.11,4.11,0,0,1,36.85,41h0a3.86,3.86,0,0,1-1.13.16H23.2v-2H35.7a2.22,2.22,0,0,0,.37,0l1.3-.81a2.08,2.08,0,0,0,.43-1.26A2.13,2.13,0,0,0,35.7,35H23.4l-3.5,2.3H16.6V48.06A10.21,10.21,0,0,1,19.05,47.76Z" transform="translate(-4.2 -6)"/><path class="cls-1" d="M15.6,53.2H5.2a1,1,0,0,1-1-1V32.7a1,1,0,0,1,1-1h5.9a5.51,5.51,0,0,1,5.5,5.5v15A1,1,0,0,1,15.6,53.2Zm-9.4-2h8.4v-14a3.47,3.47,0,0,0-3.5-3.5H6.2Z" transform="translate(-4.2 -6)"/><path class="cls-1" d="M16.1,26.55a4.76,4.76,0,0,1-.83-.08,4.24,4.24,0,0,1-1.52-7.7L29.85,8.26A9.3,9.3,0,0,1,35,6.7h.2a9.58,9.58,0,0,1,3.91.89L41.6,8.68a7.84,7.84,0,0,0,5.53.46l2.27-.68V23.9H44.69l-3.6,2.3H28.2a4.1,4.1,0,0,1-4.09-3.89l-5.68,3.54A4.19,4.19,0,0,1,16.1,26.55ZM35,8.7a7.37,7.37,0,0,0-4.06,1.24L14.85,20.44a2.21,2.21,0,0,0-1,1.42,2.31,2.31,0,0,0,.34,1.69,2.26,2.26,0,0,0,1.43,1,2.3,2.3,0,0,0,1.69-.34l7.92-4.94a4.2,4.2,0,0,1,1.66-1l.24-.15,0,.07a4.07,4.07,0,0,1,1-.12H40.8v2H28.2a2.31,2.31,0,0,0-.46.05l-1.15.72a2.09,2.09,0,0,0-.49,1.33,2.13,2.13,0,0,0,2.1,2.1H40.51l3.6-2.3H47.4V11.14a9.84,9.84,0,0,1-6.63-.64L38.3,9.42a7.6,7.6,0,0,0-3.1-.72Z" transform="translate(-4.2 -6)"/><path class="cls-1" d="M58.8,27.4H48.4a1,1,0,0,1-1-1V11.6A5.6,5.6,0,0,1,53,6h5.8a1,1,0,0,1,1,1V26.4A1,1,0,0,1,58.8,27.4Zm-9.4-2h8.4V8H53a3.61,3.61,0,0,0-3.6,3.6Z" transform="translate(-4.2 -6)"/></g></svg>