<svg id="Layer_1" data-name="Layer 1" xmlns="http://www.w3.org/2000/svg" viewBox="0 0 2048 2048"><defs><style>.cls-1{fill:#150256;}.cls-2{fill:none;}</style></defs><path class="cls-1" d="M1760,320H288a32,32,0,0,0-32,32V1455.29a32,32,0,0,0,32,32H777.33V1664H656a32,32,0,0,0,0,64h736a32,32,0,0,0,0-64H1270.67V1487.29H1760a32,32,0,0,0,32-32V352A32,32,0,0,0,1760,320ZM1206.67,1664H841.33V1487.29h365.34ZM1728,1423.29H320V384H1728Z"/><path class="cls-1" d="M606.6,994.77h88.2a339.61,339.61,0,0,0,32,77.2l-62.2,62.2-.18.18a32,32,0,0,0,0,45.26h0l83.45,83.45.18.18a32,32,0,0,0,45.25,0h0l62.39-62.39a340.29,340.29,0,0,0,77.19,32v88.22a32,32,0,0,0,32,32h118.26a32,32,0,0,0,32-32v-88.2a340.83,340.83,0,0,0,77.2-32l62.2,62.19.18.19a32,32,0,0,0,45.25,0h0l83.45-83.44.18-.18a32,32,0,0,0,0-45.25h0L1321.2,1072a340.29,340.29,0,0,0,32-77.19h88.22a32,32,0,0,0,32-32V844.51a32,32,0,0,0-32-32h-88.2a341.33,341.33,0,0,0-32-77.2l62.19-62.19.19-.18a32,32,0,0,0,0-45.26h0l-83.44-83.45-.18-.18a32,32,0,0,0-45.26,0h0l-62.39,62.39a343.19,343.19,0,0,0-37.65-18.39,338.11,338.11,0,0,0-39.54-13.6h0V486.24a32,32,0,0,0-32-32H964.87a32,32,0,0,0-32,32v88.22a341.37,341.37,0,0,0-77.19,32l-62.21-62.21-.17-.18a32,32,0,0,0-45.26,0h0L664.6,627.5l-.18.18a32,32,0,0,0,0,45.25h0l62.38,62.39a341.51,341.51,0,0,0-32,77.19H606.6a32,32,0,0,0-32,32V962.77A32,32,0,0,0,606.6,994.77Zm32-118.26h81.49a32,32,0,0,0,31.72-27.74,275.38,275.38,0,0,1,42-100.29l0,0a32,32,0,0,0-4.35-41l-57.2-57.2,38.38-38.38,57.65,57.66h0a32,32,0,0,0,41.73,3,275.39,275.39,0,0,1,100.82-41.53l-6-31.38L971,631.15a32,32,0,0,0,25.93-31.92v-81h54.26v81.5a32,32,0,0,0,27.74,31.71,274.8,274.8,0,0,1,51.29,15.61h0a276.92,276.92,0,0,1,49,26.39l0,0a32,32,0,0,0,41-4.35l57.2-57.2,38.38,38.38L1258.07,708h0a32,32,0,0,0-3,41.73,275.4,275.4,0,0,1,41.54,100.83l31.37-6-31.41,6.08a32,32,0,0,0,31.92,25.93h81v54.26h-81.5a32,32,0,0,0-31.72,27.74,274,274,0,0,1-15.6,51.29,277.57,277.57,0,0,1-26.39,49l0,0a32,32,0,0,0,4.35,41l57.19,57.2-38.37,38.38-57.65-57.65h0a32,32,0,0,0-41.73-3,275.35,275.35,0,0,1-100.84,41.54l6,31.37-6.08-31.41a32,32,0,0,0-25.92,31.92v81H996.87v-81.5a32,32,0,0,0-27.74-31.71,275.38,275.38,0,0,1-100.29-42l0,0a32,32,0,0,0-41,4.35l-57.19,57.19L732.29,1157l57.64-57.65h0a32,32,0,0,0,3-41.73,275.35,275.35,0,0,1-41.54-100.84l-31.38,6,31.42-6.08a32,32,0,0,0-31.92-25.92h-81Z"/><path class="cls-1" d="M1024,1102.61a199,199,0,0,0,0-397.93h0a199,199,0,0,0,0,397.93Zm-95.43-294.4A135,135,0,1,1,889,903.64,134.54,134.54,0,0,1,928.57,808.21Z"/><rect class="cls-2" width="2048" height="2048"/></svg>