<svg id="Layer_1" data-name="Layer 1" xmlns="http://www.w3.org/2000/svg" viewBox="0 0 64 64"><defs><style>.cls-1{fill:#150256;}</style></defs><g id="Line"><path class="cls-1" d="M15.09,55.9a7,7,0,0,1-4.91-2A7.15,7.15,0,0,1,8,48.7V15.3A7.3,7.3,0,0,1,15.3,8H48.6a7.31,7.31,0,0,1,7.3,7.3V48.6a7.32,7.32,0,0,1-7.3,7.3H15.09ZM15.3,10A5.25,5.25,0,0,0,10,15.3V48.7a5.22,5.22,0,0,0,1.57,3.77,5,5,0,0,0,3.7,1.43H48.6a5.25,5.25,0,0,0,5.3-5.3V15.3A5.25,5.25,0,0,0,48.6,10Z"/><path class="cls-1" d="M24.2,50.88a2.26,2.26,0,0,1-1.44-.51A25.81,25.81,0,0,1,15.42,42,25.15,25.15,0,0,1,12.3,30.43V30.3a2.37,2.37,0,0,1,2.4-2.4l7.72.2a2.5,2.5,0,0,1,2.37,2.28A13.09,13.09,0,0,0,26.37,36a15.23,15.23,0,0,0,3.55,4.11,2.36,2.36,0,0,1,.51,3.13l-4.19,6.49a1.12,1.12,0,0,1-.17.2,2.3,2.3,0,0,1-1.54.92A1.83,1.83,0,0,1,24.2,50.88Zm1.2-.68Zm.9-.9ZM14.67,29.9a.36.36,0,0,0-.37.4v.1A23.14,23.14,0,0,0,17.17,41,24,24,0,0,0,24,48.8a.27.27,0,0,0,.24.08.37.37,0,0,0,.18-.08,1.23,1.23,0,0,1,.26-.33l4.08-6.31a.4.4,0,0,0-.08-.48,17.1,17.1,0,0,1-4-4.67,14.85,14.85,0,0,1-1.84-6.46.52.52,0,0,0-.43-.45ZM39.83,50.78a1.72,1.72,0,0,1-.39,0,2.32,2.32,0,0,1-1.61-1.15l-4.17-6.45a2.35,2.35,0,0,1-.37-1.67,2.16,2.16,0,0,1,1-1.5,12.47,12.47,0,0,0,3.48-4,12.91,12.91,0,0,0,1.58-5.56A2.51,2.51,0,0,1,41.46,28h.11l7.83-.2a2.37,2.37,0,0,1,2.4,2.4,25.05,25.05,0,0,1-3.13,11.59,24.85,24.85,0,0,1-7.21,8.29,1,1,0,0,1-.38.31A2.23,2.23,0,0,1,39.83,50.78ZM39.7,49.4Zm2-19.4c-.21.05-.4.23-.4.4v.05a14.81,14.81,0,0,1-1.83,6.44A14.39,14.39,0,0,1,35.4,41.6a.3.3,0,0,0-.07.44l4.21,6.52c.1.17.21.21.25.21a.17.17,0,0,0,.16,0,.75.75,0,0,1,.16-.15,23,23,0,0,0,6.81-7.76A23.2,23.2,0,0,0,49.8,30.17a.36.36,0,0,0-.4-.37h-.1Zm-1.4.4h0Zm-1.73-3.18a2.5,2.5,0,0,1-1-.2,14.9,14.9,0,0,0-5.26-1.22,14.84,14.84,0,0,0-5.66,1.12,2.4,2.4,0,0,1-3.18-1.07l-3.78-6.66A2.42,2.42,0,0,1,20.54,16a1,1,0,0,1,.41-.16A25.63,25.63,0,0,1,32.53,13.3a26.52,26.52,0,0,1,10.91,2.6,2.25,2.25,0,0,1,1.22,1.37A2.4,2.4,0,0,1,44.57,19a1.39,1.39,0,0,1-.1.29L40.67,26A2.34,2.34,0,0,1,38.57,27.22ZM32.4,23.8a16.71,16.71,0,0,1,6,1.39.42.42,0,0,0,.5-.14l3.73-6.58a1,1,0,0,1,.09-.27.37.37,0,0,0,0-.3.3.3,0,0,0-.15-.18A24.63,24.63,0,0,0,32.47,15.3a23.63,23.63,0,0,0-10.83,2.4l-.11,0a.39.39,0,0,0-.06.46l3.8,6.71.05.1c.08.2.45.12.63,0A16.82,16.82,0,0,1,32.4,23.8Z"/><path class="cls-1" d="M32,36.1A4.1,4.1,0,1,1,36.1,32,4.11,4.11,0,0,1,32,36.1Zm0-6.2A2.1,2.1,0,1,0,34.1,32,2.1,2.1,0,0,0,32,29.9Z"/></g></svg>